<svg xmlns="http://www.w3.org/2000/svg" width="965.0002" height="1024" viewBox="0 0 965.0002 1024"><g id="be34940e-f73a-423a-8316-d112463ed120" data-name="container - BRASS"><path id="b6419ea8-29a7-489c-aee9-603dbd756f76" data-name="back layer" d="M185,.15,915,160h79v864H166a52,52,0,0,1-52-52V754.2921L183.4662,2.4109Z" transform="translate(-29)" fill="#705a01"/><path id="ac9c0e57-4ee9-473f-afa8-e9c1744fd735" data-name="primary facade" d="M156,0H842a52,52,0,0,1,52,52V720a0,0,0,0,1,0,0H156a0,0,0,0,1,0,0V0A0,0,0,0,1,156,0Z" fill="#dbae03"/><polygon id="b0e5f09b-0041-4b0d-abc1-38a584495193" data-name="flap" points="0 814 156 720 156 0 0 94 0 814" fill="#eacd5d"/></g><g id="e2fdcf5a-f90a-4c7e-b6b7-e2db9c97dd80" data-name="product subscript template"><path d="M347.1284,894.8223H382.769c.8633,12.0957,4.752,23.3281,27.2159,23.3281,16.8486,0,22.0322-7.56,22.0322-14.6885v-4.5361c0-10.8-5.832-13.3916-26.3525-19.8721l-20.9522-6.9121c-22.68-7.1279-32.6162-19.2236-32.6162-38.0166v-5.4c0-19.8711,16.416-41.2558,58.1045-41.2558,33.9131,0,57.2412,15.3359,58.5371,46.44H433.9614c-1.08-11.6641-7.3437-20.7363-23.5439-20.7363-16.417,0-20.7363,6.9121-20.7363,13.6083v3.0235c0,7.1289,4.9677,11.4492,22.8955,17.0644l20.52,6.6963c25.0566,7.9922,36.7207,19.8721,36.7207,41.2569v6.48c0,24.84-21.6006,44.28-59.833,44.28C371.9683,945.583,349.0718,927.8711,347.1284,894.8223Z" transform="translate(-29)" fill="#fff"/><path d="M560.7305,881.8613V942.127h-37.8V882.0781l-47.7378-91.1533h39.7456l27.6484,63.7207,27.4317-63.7207H608.252Z" transform="translate(-29)" fill="#fff"/><path d="M748.9941,790.9248V942.127H708.17l-49.249-104.33v104.33H626.7363V790.9248h44.2813L716.81,884.67V790.9248Z" transform="translate(-29)" fill="#fff"/></g><g id="b2b63441-6c14-4b26-b41f-1a8fd768b4cd" data-name="product initial template"><path d="M389.5576,435.2954h94.0508c2.28,31.92,12.54,61.5606,71.8213,61.5606,44.46,0,58.1406-19.95,58.1406-38.76v-11.97c0-28.5-15.3906-35.34-69.541-52.4409l-55.291-18.24c-59.8506-18.81-86.0713-50.73-86.0713-100.3213v-14.25c0-52.44,43.3213-108.871,153.332-108.871,89.4912,0,151.0528,40.47,154.4727,122.5512H618.7c-2.85-30.78-19.38-54.7207-62.1309-54.7207-43.32,0-54.7207,18.24-54.7207,35.9107v7.98c0,18.81,13.11,30.2105,60.4209,45.0308l54.15,17.67c66.1211,21.09,96.9014,52.4409,96.9014,108.8716v17.1c0,65.5508-57.001,116.8516-157.8916,116.8516C455.1084,569.2471,394.6875,522.5068,389.5576,435.2954Z" transform="translate(-29)" fill="#fff"/></g></svg>