<?xml version="1.0" encoding="UTF-8"?><svg xmlns="http://www.w3.org/2000/svg" width="483.1171" height="77.0037" xmlns:xlink="http://www.w3.org/1999/xlink" viewBox="0 0 483.1171 77.0037"><defs><clipPath id="uuid-12ef0847-be22-4213-83ce-eb2aa6c60e4e"><rect x="0" y="0" width="84.4416" height="77.0037" fill="none"/></clipPath><clipPath id="uuid-86c91763-e9f2-4a05-9c44-2cdaaf99efcd"><rect x="0" y="0" width="84.4416" height="77.0037" fill="none"/></clipPath><clipPath id="uuid-fb6a19d9-5306-4a48-99e8-2432cb25f328"><rect x="0" y="0" width="84.4416" height="77.0037" fill="none"/></clipPath></defs><g id="uuid-12aeb74c-3f8e-4b12-ac11-d95d4931de2f"><g><path d="M103.4296,36.1372l2.2676-2.6992c2.124,1.4033,3.5283,2.375,6.9473,2.375,3.708,0,5.3281-1.8359,5.3281-3.5273v-.4678c0-1.7998-.8643-2.7002-3.8516-3.6719l-3.708-1.2236c-4.2471-1.3672-5.9395-3.5996-5.9395-6.3711v-.8281c0-3.4199,3.2393-6.4434,8.999-6.4434,3.8154,0,6.5869,1.1875,8.8555,3.2754l-2.2324,2.4844c-2.3037-1.7285-3.9238-2.3037-6.4434-2.3037-3.2754,0-4.6426,1.5479-4.6426,2.9512v.6123c0,1.2598,1.1514,2.3037,4.0312,3.2031l3.3477,1.0801c3.4551,1.0801,6.083,2.916,6.083,6.7676v.9717c0,4.2471-3.96,7.0908-9.6104,7.0908-4.5723,0-7.4512-1.4395-9.4316-3.2754Z" fill="#fff"/><path d="M125.3534,46.144l.6113-2.915c.7207,.1426,1.2969,.2148,2.0156,.2148,1.6562,0,2.7002-.6475,3.168-2.4111l.6123-2.0879h-1.9443l-6.1543-19.1494h4.6074l4.5352,15.8379,4.1387-15.8379h4.4277l-6.5146,21.4893c-1.1885,4.0312-3.4199,5.3271-6.6592,5.3271-1.0801,0-2.1963-.2158-2.8438-.4678Z" fill="#fff"/><path d="M160.1269,25.6977v13.2471h-4.4629v-12.8857c0-2.4121-1.1523-3.3848-2.9883-3.3848-1.7275,0-3.0596,.9004-4.1387,2.4121v13.8584h-4.4639V19.7954h3.8154l.2881,1.9795c1.332-1.583,3.1318-2.4834,5.6875-2.4834,3.5635,0,6.2627,2.2676,6.2627,6.4062Z" fill="#fff"/><path d="M174.7431,38.9448c-.8643,.252-2.1592,.4678-3.3477,.4678-3.6709,0-5.7949-1.6191-5.7949-5.2188v-11.0869h-2.916v-3.3115h3.0244l.3594-4.7158h3.9961v4.7158h4.1387v3.3115h-4.1387v10.835c0,1.4033,.7559,2.0508,2.3389,2.0508,.6846,0,1.2959-.0713,1.8721-.1797l.4678,3.1318Z" fill="#fff"/><path d="M193.8573,25.6977v13.2471h-4.4629v-12.8857c0-2.4121-1.1875-3.3848-3.0234-3.3848-1.7285,0-3.0596,.9004-4.1396,2.4482v13.8223h-4.4639V12.3081h4.4639v9.1436c1.2959-1.4404,3.0234-2.1602,5.3271-2.1602,3.5635,0,6.2988,2.2676,6.2988,6.4062Z" fill="#fff"/><path d="M213.5859,30.7739h-12.3467c.0713,3.6719,1.7637,5.291,5.0752,5.291,2.0879,0,3.6357-.7559,5.1113-1.584l1.584,2.6641c-1.6201,1.2246-4.2119,2.2676-6.9834,2.2676-5.8311,0-9.1426-3.8516-9.1426-9.0352v-1.9795c0-5.1826,3.2393-9.1064,8.5674-9.1064,5.2188,0,8.2783,3.2393,8.2783,9.3223,0,.793-.0723,1.584-.1436,2.1602Zm-3.8516-3.0957c0-3.3115-1.4766-5.1113-4.248-5.1113-2.7354,0-4.1758,1.7998-4.2471,5.291h8.4951v-.1797Z" fill="#fff"/><path d="M215.5673,36.7856l2.124-2.5566c1.584,1.1885,3.2393,1.8721,5.3994,1.8721,2.2676,0,3.6357-.6475,3.6357-2.0869v-.2891c0-1.2598-.6836-1.8359-3.2041-2.6992l-2.4111-.8281c-2.9883-1.0801-4.6074-2.5195-4.6074-4.9316v-.791c0-3.0605,3.0234-5.1836,7.2705-5.1836,2.7354,0,5.3633,.9004,7.1992,2.4121l-2.0518,2.4473c-1.9082-1.2246-3.2754-1.5479-5.0029-1.5479-2.0166,0-2.9521,.8271-2.9521,1.835v.2891c0,1.0078,.6484,1.6553,3.0957,2.5195l2.4121,.8281c2.7354,.9707,4.6797,2.2305,4.6797,5.1465v.793c0,3.5625-3.5283,5.3984-7.668,5.3984-3.2393,0-5.9746-.9717-7.9189-2.627Z" fill="#fff"/><path d="M240.7304,19.7954v19.1494h-4.4639v-15.8379h-2.8799v-3.3115h7.3438Zm-5.1113-5.6514c0-1.5117,1.2236-2.7002,2.6992-2.7002,1.5117,0,2.7002,1.1885,2.7002,2.7002,0,1.4756-1.1885,2.6631-2.7002,2.6631-1.4756,0-2.6992-1.1875-2.6992-2.6631Z" fill="#fff"/><path d="M243.539,36.7856l2.123-2.5566c1.584,1.1885,3.2402,1.8721,5.3994,1.8721,2.2676,0,3.6357-.6475,3.6357-2.0869v-.2891c0-1.2598-.6836-1.8359-3.2031-2.6992l-2.4121-.8281c-2.9883-1.0801-4.6074-2.5195-4.6074-4.9316v-.791c0-3.0605,3.0234-5.1836,7.2715-5.1836,2.7354,0,5.3633,.9004,7.1992,2.4121l-2.0527,2.4473c-1.9072-1.2246-3.2754-1.5479-5.0029-1.5479-2.0156,0-2.9521,.8271-2.9521,1.835v.2891c0,1.0078,.6484,1.6553,3.0957,2.5195l2.4121,.8281c2.7354,.9707,4.6797,2.2305,4.6797,5.1465v.793c0,3.5625-3.5273,5.3984-7.668,5.3984-3.2393,0-5.9746-.9717-7.918-2.627Z" fill="#fff"/></g><g><g><g id="uuid-8398c8a9-2472-4879-8bb0-b88f9744e55b"><path id="uuid-3d8587db-7168-43a4-a8dc-ba4770390564" d="M143.2597,70.6951l17.148-10.6662h8.8951c.2737,0,.52,.2189,.52,.52,0,.2463-.1095,.3558-.2463,.4379l-8.4223,5.0484c-.5474,.3284-.739,.9853-.739,1.478l-.0085,3.182h10.7025v-18.4939c0-.3558-.2737-.6569-.6842-.6569h-10.2088l-17.1059,10.6193v8.5314h.1494Z" fill="#fff"/></g><g><polygon points="283.8382 70.694 299.2533 70.694 299.2533 66.553 288.7213 66.553 288.7213 63.0821 297.1948 63.0821 297.1948 58.9172 288.7213 58.9172 288.7213 55.6857 299.2533 55.6857 299.2533 51.5447 283.8382 51.5447 283.8382 70.694" fill="#fff"/><path d="M186.943,51.5447l-7.3485,19.1493h5.0507l1.2827-3.5905h8.2031l1.2617,3.5905h5.2182l-7.4442-19.1493h-6.2236Zm.4386,11.4896l2.6818-7.5068,2.6378,7.5068h-5.3195Z" fill="#fff"/><polygon points="221.5553 55.6857 227.7309 55.6857 227.7309 70.6939 232.6139 70.6939 232.6139 55.6857 238.7656 55.6857 238.7656 51.5447 221.5553 51.5447 221.5553 55.6857" fill="#fff"/><path d="M214.4462,63.3694c0,2.4893-1.532,3.4947-4.1411,3.4947-2.5373,0-4.1888-1.0532-4.1888-3.4947v-11.8248h-4.8831v12.3753c0,5.5293,4.9309,7.2528,9.072,7.2528,4.1171,0,9.0241-1.7235,9.0241-7.2528v-12.3753h-4.883v11.8248Z" fill="#fff"/><polygon points="339.5625 51.5447 333.746 51.5447 326.7804 59.3241 326.7804 51.5447 321.8974 51.5447 321.9212 70.694 326.7804 70.694 326.7804 63.4173 333.3869 70.694 339.5625 70.694 330.6581 61.239 339.5625 51.5447" fill="#fff"/><path d="M272.3487,51.5447h-8.9522v19.1493h8.9522c6.8698,0,8.7608-2.5612,8.7608-9.7183,0-6.7261-1.8191-9.431-8.7608-9.431Zm-.1915,15.0083h-3.8777v-10.8673h3.8777c3.0639,0,3.9735,.8379,3.9735,5.29,0,4.0693-1.0293,5.5773-3.9735,5.5773Z" fill="#fff"/><path d="M314.0222,59.4198l-4.4522-.5027c-2.6091-.2872-3.2553-.9335-3.2553-1.8191,0-.9814,1.3405-1.8671,3.9495-1.8671,2.5133,0,3.8298,.9336,4.0692,2.3458h4.7873c-.2393-4.0453-3.6383-6.5586-8.5932-6.5586-5.8884,0-8.8565,2.3458-8.8565,6.4868,0,3.3751,1.9628,4.9549,6.032,5.3857l4.524,.4787c1.7235,.1915,2.5133,.8617,2.5133,1.7235,0,.9814-1.1489,1.867-3.9256,1.867-3.2075,0-4.5-.8138-4.7155-2.4415h-4.6915c.2154,4.4043,3.0878,6.6544,9.2395,6.6544,5.625,0,8.7608-2.4655,8.7608-6.1757,0-3.2315-1.867-5.1703-5.3857-5.5772Z" fill="#fff"/><path d="M250.1355,51.0181c-6.9655,0-10.58,4.2847-10.58,10.0534,0,5.7926,3.6144,10.1012,10.58,10.1012,6.9895,0,10.6039-4.3086,10.6039-10.1012,0-5.7687-3.6144-10.0534-10.6039-10.0534Zm0,15.846c-3.6144,0-5.6012-2.2021-5.6012-5.7926,0-3.5187,1.9867-5.7448,5.6012-5.7448,3.6384,0,5.6012,2.2261,5.6012,5.7448,0,3.5905-1.9628,5.7926-5.6012,5.7926Z" fill="#fff"/></g></g><g><path d="M114.9101,64.9799h-7.332l-1.7783,5.7178h-2.3535l6.1562-19.1514h3.2012l6.4014,19.1514h-2.4072l-1.8877-5.7178Zm-6.7305-1.9697h6.1016l-3.0918-9.7676-3.0098,9.7676Z" fill="#fff"/><path d="M133.6142,60.7114v9.9863h-2.2979v-9.7676c0-2.2158-1.0947-3.1729-2.873-3.1729-1.6963,0-2.9824,.9023-3.9121,2.4072v10.5332h-2.2979v-14.4453h1.9424l.1641,1.8057c1.0664-1.3408,2.5166-2.1338,4.5957-2.1338,2.709,0,4.6787,1.6963,4.6787,4.7871Z" fill="#fff"/></g><g><path d="M360.6249,53.434h-5.6084v17.2637h-2.3525v-17.2637h-5.6367v-1.8877h13.5977v1.8877Z" fill="#fff"/><path d="M371.3769,64.2133h-9.8496c0,3.2832,1.6416,4.9795,4.4873,4.9795,1.6963,0,2.8447-.6016,3.9395-1.2861l.876,1.4502c-1.1494,.9033-2.9277,1.6689-4.9248,1.6689-4.1865,0-6.6484-2.9268-6.6484-6.8672v-1.4229c0-3.8301,2.3525-6.8115,6.2373-6.8115,3.6943,0,5.9648,2.5439,5.9648,6.8945,0,.5195-.0273,1.0391-.082,1.3945Zm-1.9971-1.833c0-2.8721-1.3955-4.623-3.8857-4.623-2.5439,0-3.9395,1.8057-3.9668,4.7871h7.8525v-.1641Z" fill="#fff"/><path d="M373.9726,64.0766v-1.2031c0-4.0498,2.1885-6.9492,6.2646-6.9492,1.8887,0,3.3105,.6289,4.5967,1.833l-1.1768,1.2852c-.9297-.8477-1.915-1.2852-3.3369-1.2852-2.5996,0-4.0498,1.8877-4.0498,5.0615v1.2852c0,3.2012,1.3955,5.0889,3.9941,5.0889,1.4502,0,2.4629-.5742,3.3926-1.2314l1.04,1.4502c-1.1494,.9307-2.791,1.6143-4.4873,1.6143-3.9941,0-6.2373-2.8994-6.2373-6.9492Z" fill="#fff"/><path d="M399.0761,60.7114v9.9863h-2.2979v-9.7676c0-2.2158-1.0947-3.1729-2.873-3.1729-1.6963,0-2.9824,.9023-3.9121,2.4346v10.5059h-2.2979v-20.2461h2.2979v7.4697c1.0117-1.2861,2.4619-1.9971,4.4043-1.9971,2.709,0,4.6787,1.6963,4.6787,4.7871Z" fill="#fff"/><path d="M413.9316,60.7114v9.9863h-2.2979v-9.7676c0-2.2158-1.0947-3.1729-2.873-3.1729-1.6963,0-2.9824,.9023-3.9121,2.4072v10.5332h-2.2979v-14.4453h1.9424l.1641,1.8057c1.0664-1.3408,2.5166-2.1338,4.5957-2.1338,2.709,0,4.6787,1.6963,4.6787,4.7871Z" fill="#fff"/><path d="M430.2079,62.7084v1.4502c0,3.9678-2.2979,6.8672-6.5381,6.8672-4.2686,0-6.5117-2.8994-6.5117-6.8672v-1.4502c0-3.8848,2.2432-6.7842,6.5117-6.7842,4.2402,0,6.5381,2.8994,6.5381,6.7842Zm-10.752-.0273v1.4502c0,3.1738,1.4775,5.0615,4.2139,5.0615,2.708,0,4.2402-1.8877,4.2402-5.0615v-1.4502c0-3.0635-1.5322-4.9238-4.2402-4.9238-2.7363,0-4.2139,1.8604-4.2139,4.9238Z" fill="#fff"/><path d="M435.8163,67.8793c0,.9307,.3281,1.2861,1.0938,1.2861,.2734,0,.4932-.0547,.7666-.1094l.3008,1.6416c-.4922,.1914-1.04,.3281-1.6689,.3281-1.6963,0-2.791-.957-2.791-2.7627v-17.8115h2.2988v17.4277Z" fill="#fff"/><path d="M452.832,62.7084v1.4502c0,3.9678-2.2979,6.8672-6.5381,6.8672-4.2686,0-6.5117-2.8994-6.5117-6.8672v-1.4502c0-3.8848,2.2432-6.7842,6.5117-6.7842,4.2402,0,6.5381,2.8994,6.5381,6.7842Zm-10.752-.0273v1.4502c0,3.1738,1.4775,5.0615,4.2139,5.0615,2.708,0,4.2402-1.8877,4.2402-5.0615v-1.4502c0-3.0635-1.5322-4.9238-4.2402-4.9238-2.7363,0-4.2139,1.8604-4.2139,4.9238Z" fill="#fff"/><path d="M467.496,56.1977v14.8281c0,3.4746-2.4355,5.4717-5.9102,5.4717-2.0791,0-3.7207-.4922-5.0605-1.3125l.7656-1.4775c1.2314,.6289,2.4072,.957,4.1582,.957,2.4355,0,3.8027-1.2031,3.8027-3.7207v-2.2432c-.9844,1.2041-2.3799,1.9971-4.1855,1.9971-2.9277,0-5.499-1.915-5.499-6.7031v-1.2861c0-4.6504,2.7637-6.7842,5.6904-6.7842,1.8057,0,3.0645,.6289,4.1045,1.8057l.1914-1.5322h1.9424Zm-2.2988,10.5332v-7.0859c-.875-1.2041-1.9971-1.8877-3.584-1.8877-2.0244,0-3.748,1.1758-3.748,4.8965v1.3135c0,3.7207,1.5322,4.8975,3.4746,4.8975,1.5869,0,2.9277-.7939,3.8574-2.1338Z" fill="#fff"/><path d="M471.5712,76.1967l.3555-1.5869c.4658,.1094,.8486,.1641,1.3682,.1641,1.2588,0,2.0518-.5469,2.5996-2.2979l.5469-1.7783h-1.04l-4.9238-14.4453h2.4072l4.1309,12.7217,3.8037-12.7217h2.2979l-5.2529,16.415c-.9854,3.0645-2.4902,3.8301-4.5693,3.8301-.6562,0-1.3408-.1367-1.7236-.3008Z" fill="#fff"/></g></g></g><g id="uuid-bcf2b7af-0189-47e4-9bfa-c33e98bae8af"><g clip-path="url(#uuid-12ef0847-be22-4213-83ce-eb2aa6c60e4e)"><g clip-path="url(#uuid-86c91763-e9f2-4a05-9c44-2cdaaf99efcd)"><path d="M13.6308,.0379l.02-.034L77.7801,14.1757h6.6615v62.8281H11.9881c-2.513,0-4.5502-2.0372-4.5502-4.5502v-6.1562L13.6308,.0379Z" fill="#705a01"/><path d="M78.2288,63.0031H13.6308V.0379L13.6507,0h60.0279C76.1916,0,78.2288,2.0372,78.2288,4.5502V63.0031Z" fill="#dbae03"/><polygon points="0 71.2285 13.6507 63.0031 13.6507 0 0 8.2254 0 71.2285" fill="#eacd5d"/></g><g clip-path="url(#uuid-fb6a19d9-5306-4a48-99e8-2432cb25f328)"><path d="M31.5505,38.0893h8.2305c.2002,2.793,1.0977,5.3867,6.2852,5.3867,3.8906,0,5.0879-1.7451,5.0879-3.3916v-1.0479c0-2.4941-1.3467-3.0918-6.085-4.5889l-4.8389-1.5957c-5.2373-1.6465-7.5322-4.4395-7.5322-8.7793v-1.2471c0-4.5889,3.791-9.5273,13.418-9.5273,7.8311,0,13.2188,3.542,13.5176,10.7246h-8.0303c-.25-2.6934-1.6963-4.7891-5.4375-4.7891-3.791,0-4.7881,1.5967-4.7881,3.1426v.6982c0,1.6465,1.1475,2.6445,5.2871,3.9414l4.7383,1.5459c5.7861,1.8457,8.4805,4.5889,8.4805,9.5273v1.4961c0,5.7363-4.9883,10.2256-13.8174,10.2256-8.7793,0-14.0664-4.0898-14.5156-11.7217Z" fill="#fff"/></g></g></g></svg>